<svg width="18" height="36" viewBox="0 0 18 36" fill="none" xmlns="http://www.w3.org/2000/svg">
<path d="M6.16349 1.26039C6.22961 0.712075 6.7277 0.321176 7.27601 0.387292L16.3162 1.47737C16.8805 1.54541 17.2747 2.06944 17.1836 2.63045L12.0507 34.2433C11.9648 34.7727 11.4764 35.1401 10.9439 35.0759L3.20575 34.1428C2.65744 34.0767 2.26654 33.5786 2.33266 33.0303L6.16349 1.26039Z" fill="#F4BC67"/>
<path d="M3.96518 1.01108C4.02296 0.455378 4.52485 0.0548085 5.07953 0.121692L14.0949 1.20877C14.6623 1.27719 15.0571 1.80649 14.9609 2.36991L9.56758 33.9514C9.47783 34.477 8.99149 34.8397 8.46214 34.7759L1.53009 33.94C0.98812 33.8746 0.598706 33.3867 0.655164 32.8437L3.96518 1.01108Z" fill="#FFC56E"/>
<rect x="2.4884" y="17.7744" width="9.47541" height="1.11475" transform="rotate(6.87557 2.4884 17.7744)" fill="#A76400"/>
<circle cx="6.29083" cy="25.812" r="1.39344" transform="rotate(6.87557 6.29083 25.812)" fill="#A76400"/>
</svg>
